<?xml version="1.0"?><svg width="800" height="933.3333333333333" xmlns="http://www.w3.org/2000/svg">

 <g>
  <title>Layer 1</title>
  <g id="g1546">
   <path fill="#808080" fill-rule="evenodd" stroke="#808080" stroke-width="37.5" stroke-linejoin="round" stroke-miterlimit="4" id="path1545" d="m285.94101,815.536011c2.550995,-73.663025 -43.230011,-144.976013 -62.127014,-176.174988c-35.677002,-58.902039 -94.849991,-119.21405 -137.499893,-175.000031c-9.595901,-12.550995 -14.786102,-49.151001 3.75,-68.75c18.608894,-19.675995 47.525894,-18.970978 64.999893,-8.75c48.776001,28.529022 65.848007,50.929016 100,97.5c11.681,15.929016 34.944,62.725983 35,98.750031l0,-408.750031c0,-36.528 34.401001,-62.202995 70,-59.999992c35.598999,2.204002 64.769012,33.137993 65,61.249992l2.5,303.75c-1.100006,-71.730988 6.286011,-115.567993 39.268005,-115.669006c32.96701,-0.100983 46.788971,48.063019 48.232025,118.169006c-1.443054,-73.02298 9.455994,-93.690002 43.964966,-94.266998c34.507996,-0.578003 44.015015,46.856018 44.785034,139.267029c0.063965,-72.827026 17.524963,-104.225037 33.75,-105.000031c16.225952,-0.773987 56.873962,32.178009 57.133972,106.605988l0.366028,104.644043c0.112,32.014954 -46.568054,56.550964 -46.843018,88.598999l-0.809021,93.97699"/>
   <path fill="#ffffff" fill-rule="evenodd" stroke="#000000" stroke-width="37.5" stroke-linejoin="round" stroke-miterlimit="4" id="path1544" d="m250.876999,755.911011c2.550995,-73.663025 -43.229996,-144.976013 -62.126999,-176.174011c-35.677994,-58.903015 -94.850403,-119.214996 -137.5,-175c-9.596001,-12.552002 -14.786098,-49.151001 3.75,-68.75c18.608803,-19.675995 47.526001,-18.971008 65,-8.75c48.776001,28.528992 65.847,50.928009 100,97.5c11.681,15.928009 34.944,62.726013 35,98.75l0,-408.75c0,-36.529099 34.401001,-62.204201 70,-60.0005c35.598999,2.2038 64.769012,33.137798 65,61.2505l2.5,303.75c-1.100006,-71.731995 6.286011,-115.569 39.268005,-115.670013c32.96698,-0.100983 46.789001,48.063019 48.231995,118.170013c-1.442993,-73.02301 9.455994,-93.69101 43.963989,-94.268005c34.509033,-0.578003 44.015991,46.856018 44.786011,139.268005c0.062988,-72.828003 17.523987,-104.226013 33.75,-105c16.226013,-0.774994 56.872986,32.177002 57.133972,106.605011l0.366028,104.644989c0.112,32.013977 -46.567993,56.549988 -46.843994,88.598022l-0.807983,93.97699"/>
  </g>
  <ellipse ry="45.500005" rx="41.500001" id="svg_2" cy="107.16669" cx="321.500001" stroke-width="5" stroke="#000000" fill="none"/>
  <ellipse id="svg_3" ry="46.000011" rx="35.000003" cy="383.166677" cx="85.500003" stroke-width="5" stroke="#000000" fill="none"/>
 </g>
</svg>